<svg xmlns="http://www.w3.org/2000/svg" version="1.1" xmlns:xlink="http://www.w3.org/1999/xlink" xmlns:svgjs="http://svgjs.dev/svgjs" width="2000" height="1500" viewBox="0 0 2000 1500"><rect width="2000" height="1500" fill="#153448"></rect><g transform="matrix(0.75,0,0,0.75,249.2500000000001,-0.7499999999998863)"><svg viewBox="0 0 280 280" data-background-color="#153448" preserveAspectRatio="xMidYMid meet" height="2000" width="2000" xmlns="http://www.w3.org/2000/svg" xmlns:xlink="http://www.w3.org/1999/xlink"><g id="tight-bounds" transform="matrix(1,0,0,1,0.13999999999998636,0.13999999999998636)"><svg viewBox="0 0 279.72 279.72" height="279.72" width="279.72"><g><svg viewBox="0 0 279.72 279.72" height="279.72" width="279.72"><g><svg viewBox="0 0 279.72 279.72" height="279.72" width="279.72"><g id="textblocktransform"><svg viewBox="0 0 279.72 279.72" height="279.72" width="279.72" id="textblock"><g><svg viewBox="0 0 279.72 279.72" height="279.72" width="279.72"><g transform="matrix(1,0,0,1,90.4852923689301,73.92936372216631)"><svg viewBox="0 0 98.74941526213982 131.8612725556674" height="131.8612725556674" width="98.74941526213982"><g id="icon-0"><svg xmlns="http://www.w3.org/2000/svg" xmlns:xlink="http://www.w3.org/1999/xlink" version="1.0" x="0" y="0" viewBox="28.108222222222224 20.533663758742186 43.78477777777778 58.46633624126816" enable-background="new 0 0 100 100" xml:space="preserve" height="131.8612725556674" width="98.74941526213982" class="icon-jxe-0" data-fill-palette-color="accent" id="jxe-0"><g fill="#dfd0b8" data-fill-palette-color="accent"><g fill="#dfd0b8" data-fill-palette-color="accent"><path d="M71.867 57.15C71.824 48.574 61.146 43.383 60.73 43.186 59.354 42.455 58.642 41.38 59.631 38.505 60.52 35.946 61.289 33.372 60.93 30.036 60.37 24.786 55.494 20.534 50.046 20.534H49.996C44.566 20.49 39.624 24.77 39.062 30.035 38.704 33.373 39.473 35.947 40.363 38.503 41.351 41.38 40.638 42.455 39.301 43.165 38.848 43.382 28.168 48.573 28.126 57.151 28.086 65.11 28.126 77.875 28.126 78.003A1 1 0 0 0 29.126 79H70.888A1 1 0 0 0 71.888 78.001C71.888 77.874 71.908 65.111 71.868 57.151M41.051 30.249C41.498 26.058 45.566 22.533 49.947 22.533H50C50.016 22.531 50.03 22.533 50.045 22.533 54.425 22.533 58.495 26.057 58.94 30.25 59.228 32.91 58.741 34.974 57.741 37.852 57.477 38.62 56.89 40.341 57.338 42.03 54.973 44.281 52.508 45.401 49.93 45.334 46.41 45.239 43.647 42.928 42.67 41.994 43.097 40.319 42.516 38.614 42.252 37.85 41.252 34.975 40.765 32.912 41.051 30.248M69.889 77H30.123C30.115 73.832 30.093 63.815 30.126 57.16 30.161 49.842 40.063 45.019 40.201 44.952A5.4 5.4 0 0 0 41.691 43.812C43.097 45.068 46.05 47.222 49.855 47.332 49.957 47.336 50.06 47.338 50.16 47.338 53.02 47.337 55.762 46.153 58.335 43.834 58.715 44.248 59.196 44.634 59.83 44.971 59.93 45.018 69.831 49.824 69.867 57.16 69.9 63.814 69.893 73.829 69.89 77" fill="#dfd0b8" data-fill-palette-color="accent"></path><path d="M48.996 36L52.996 36.015H53A1 1 0 0 0 53.004 34.015L50 34.003V29A1 1 0 1 0 48 29V35A1 1 0 0 0 48.996 36" fill="#dfd0b8" data-fill-palette-color="accent"></path><path d="M47.144 56.14A1 1 0 0 0 45.735 56.004L40.028 60.712A1 1 0 0 0 40.032 62.258L45.528 66.754A1 1 0 1 0 46.794 65.206L42.24 61.48 47.01 57.547A1 1 0 0 0 47.144 56.14" fill="#dfd0b8" data-fill-palette-color="accent"></path><path d="M58.085 64.98H51.32A1 1 0 1 0 51.32 66.98H58.085A1 1 0 1 0 58.085 64.98" fill="#dfd0b8" data-fill-palette-color="accent"></path></g></g></svg></g></svg></g><g id="text-0"><path d="M28.868 105.844v0c-0.286 0.892-0.706 1.86-1.259 2.905-0.551 1.039-1.104 1.908-1.659 2.607v0l-2.761-0.886 0.9-1.523c0.325-0.247 0.719-0.686 1.181-1.318 0.471-0.636 0.858-1.425 1.16-2.367v0c0.454-1.414 0.496-2.553 0.127-3.416-0.371-0.857-0.977-1.42-1.818-1.69v0c-0.752-0.241-1.396-0.202-1.934 0.117-0.54 0.325-1.054 0.821-1.542 1.486-0.488 0.665-1.007 1.387-1.559 2.166v0c-0.588 0.802-1.202 1.511-1.842 2.128-0.634 0.618-1.338 1.049-2.111 1.293-0.78 0.241-1.654 0.207-2.623-0.104v0c-1.121-0.36-2.008-0.968-2.66-1.824-0.661-0.851-1.066-1.856-1.214-3.013-0.148-1.158-0.019-2.37 0.387-3.638v0c0.231-0.72 0.575-1.495 1.031-2.325 0.454-0.824 1.024-1.702 1.709-2.633v0l2.236 0.717-0.893 1.895c-0.32 0.473-0.613 0.959-0.878 1.457-0.274 0.502-0.49 1.002-0.65 1.498v0c-0.231 0.72-0.325 1.396-0.282 2.028 0.043 0.632 0.213 1.175 0.51 1.628 0.293 0.445 0.7 0.752 1.223 0.92v0c0.694 0.223 1.333 0.136 1.917-0.26 0.579-0.404 1.117-0.952 1.612-1.643 0.496-0.691 0.966-1.348 1.412-1.97v0c0.512-0.742 1.086-1.415 1.723-2.018 0.63-0.606 1.345-1.04 2.146-1.303 0.797-0.271 1.717-0.239 2.762 0.096v0c1.115 0.358 2.027 0.974 2.737 1.848 0.704 0.872 1.147 1.921 1.33 3.145 0.185 1.219 0.045 2.551-0.418 3.997zM15.986 97.189l-2.919-0.526 1.254-2.232 2.904 0.932-0.395 1.233c-0.08 0.248-0.193 0.416-0.341 0.502-0.156 0.091-0.323 0.121-0.503 0.091zM22.269 107.952l2.919 0.525-1.254 2.233-2.905-0.933 0.396-1.232c0.088-0.274 0.207-0.447 0.356-0.518 0.145-0.08 0.308-0.105 0.488-0.075z" fill="#dfd0b8" data-fill-palette-color="primary"></path><path d="M46.213 42.415v0c1.437-1.362 2.955-2.216 4.554-2.561 1.594-0.35 3.198-0.224 4.809 0.377 1.607 0.597 3.11 1.633 4.509 3.109v0c1.399 1.476 2.356 3.034 2.87 4.676 0.51 1.637 0.55 3.244 0.12 4.822-0.435 1.573-1.371 3.041-2.808 4.404v0c-1.403 1.33-2.911 2.179-4.526 2.547-1.614 0.359-3.229 0.245-4.845-0.342-1.621-0.592-3.131-1.626-4.531-3.102v0c-1.399-1.476-2.349-3.037-2.848-4.683-0.505-1.651-0.532-3.27-0.083-4.857 0.45-1.597 1.376-3.06 2.779-4.39zM58.382 55.254v0c1.418-1.344 2.03-2.823 1.837-4.437-0.198-1.609-1.105-3.266-2.721-4.97v0c-1.095-1.155-2.18-1.989-3.255-2.5-1.079-0.507-2.135-0.682-3.165-0.525-1.04 0.157-2.034 0.684-2.981 1.581v0c-0.966 0.916-1.555 1.898-1.768 2.948-0.217 1.045-0.09 2.117 0.382 3.218 0.472 1.101 1.237 2.21 2.296 3.327v0c1.56 1.646 3.152 2.625 4.776 2.938 1.624 0.313 3.157-0.214 4.599-1.58z" fill="#dfd0b8" data-fill-palette-color="primary"></path><path d="M112.204 29.439v0c-1.672 0.428-3.251 0.396-4.736-0.094-1.487-0.497-2.781-1.398-3.882-2.705-1.102-1.313-1.905-2.955-2.409-4.924v0c-0.491-1.918-0.587-3.713-0.289-5.384 0.299-1.665 1.012-3.09 2.138-4.276 1.124-1.192 2.685-2.043 4.681-2.553v0c0.784-0.201 1.729-0.3 2.833-0.3 1.105 0.001 2.172 0.069 3.202 0.207v0l0.524 2.051-2.003 0.388c-0.55-0.046-1.124-0.061-1.721-0.047-0.602 0.023-1.256 0.124-1.962 0.305v0c-1.29 0.33-2.283 0.901-2.979 1.715-0.698 0.807-1.122 1.809-1.272 3.007-0.149 1.198-0.037 2.53 0.338 3.994v0c0.562 2.197 1.492 3.837 2.791 4.92 1.299 1.083 2.846 1.395 4.641 0.937v0c0.985-0.252 1.755-0.618 2.309-1.098 0.549-0.472 0.987-0.919 1.314-1.341 0.321-0.42 0.594-0.659 0.821-0.717v0c0.13-0.033 0.256-0.038 0.38-0.014 0.13 0.022 0.246 0.072 0.349 0.149v0l1.263 1.013c-0.577 1.225-1.424 2.235-2.539 3.031-1.115 0.796-2.379 1.375-3.792 1.736zM112.826 14.335l-1.107-2.751 2.547-0.123 0.756 2.955-1.254 0.321c-0.253 0.065-0.455 0.058-0.606-0.022-0.159-0.084-0.271-0.21-0.336-0.38z" fill="#dfd0b8" data-fill-palette-color="primary"></path><path d="M166.159 29.485l-3.357-0.925 7.661-27.811 3.357 0.924-3.096 11.241c1.066-0.622 2.169-1.061 3.307-1.316 1.139-0.255 2.35-0.206 3.634 0.147v0c1.412 0.389 2.507 1.013 3.283 1.873 0.775 0.866 1.256 1.914 1.444 3.145 0.188 1.231 0.085 2.563-0.31 3.995v0l-3.357 12.188-3.357-0.924 3.358-12.189c0.394-1.432 0.37-2.642-0.072-3.631-0.449-0.991-1.35-1.673-2.704-2.046v0c-0.98-0.27-1.971-0.286-2.974-0.049-1.002 0.237-1.982 0.672-2.94 1.303v0zM181.443 33.695l-3.85-1.061 1.226-2.826 2.669 1.381c0.193 0.081 0.322 0.203 0.388 0.367 0.058 0.169 0.055 0.366-0.006 0.591v0zM163.934 28.872l-3.85-1.06 0.426-1.548c0.062-0.226 0.164-0.395 0.307-0.509 0.134-0.109 0.308-0.148 0.521-0.117v0l2.99 0.179zM167.745 0l3.85 1.061-1.226 2.826-2.66-1.378c-0.192-0.108-0.319-0.24-0.38-0.396-0.069-0.151-0.073-0.339-0.01-0.565v0zM168.877 30.234l-3.85-1.061 1.226-2.826 2.669 1.38c0.193 0.081 0.322 0.203 0.388 0.368 0.058 0.169 0.055 0.366-0.006 0.591v0z" fill="#dfd0b8" data-fill-palette-color="primary"></path><path d="M219.614 59.207v0c-0.734-0.742-1.25-1.549-1.547-2.421-0.298-0.881-0.343-1.773-0.134-2.676 0.204-0.907 0.712-1.763 1.525-2.567v0c0.556-0.55 1.244-0.925 2.064-1.124 0.81-0.199 1.76-0.156 2.852 0.13v0c1.067 0.299 2.275 0.874 3.623 1.723 1.353 0.845 2.839 2.047 4.457 3.607v0l1.084-1.072c1.094-1.082 1.689-2.14 1.784-3.176 0.1-1.031-0.299-2-1.197-2.908v0c-0.48-0.485-1.107-0.867-1.881-1.146-0.769-0.283-1.501-0.524-2.195-0.722-0.694-0.198-1.168-0.425-1.422-0.682v0c-0.165-0.166-0.261-0.359-0.288-0.576-0.022-0.213-0.007-0.421 0.046-0.624v0l0.34-1.211c1.532 0.027 2.929 0.307 4.189 0.839 1.26 0.532 2.431 1.345 3.512 2.439v0c1.049 1.061 1.707 2.173 1.976 3.338 0.273 1.16 0.198 2.326-0.226 3.497-0.423 1.171-1.172 2.288-2.246 3.351v0l-9.018 8.918-1.072-1.085c-0.24-0.243-0.395-0.475-0.465-0.698-0.074-0.218-0.019-0.475 0.168-0.772v0l1.03-1.569c-1.4-0.083-2.652-0.313-3.756-0.688-1.105-0.375-2.172-1.083-3.203-2.125zM222.089 58.199v0c0.823 0.832 1.714 1.4 2.673 1.703 0.959 0.303 2.02 0.449 3.183 0.437v0l2.918-2.886c-0.969-0.951-1.901-1.756-2.796-2.414-0.89-0.662-1.713-1.161-2.468-1.496-0.755-0.335-1.438-0.488-2.048-0.459-0.606 0.034-1.142 0.282-1.608 0.743v0c-0.742 0.734-1.063 1.484-0.963 2.251 0.095 0.762 0.465 1.469 1.109 2.121zM228.895 68.148l-2.808-2.839 2.472-1.838 1.625 2.528c0.127 0.166 0.176 0.334 0.146 0.504-0.029 0.18-0.127 0.352-0.294 0.517v0z" fill="#dfd0b8" data-fill-palette-color="primary"></path><path d="M250.631 109.749l-1.053-3.319 27.497-8.721 1.053 3.319zM249.933 107.549l-1.207-3.807 1.53-0.485c0.223-0.071 0.421-0.077 0.594-0.02 0.164 0.053 0.291 0.178 0.381 0.374v0l1.479 2.604zM251.483 112.436l-1.207-3.806 3.038-0.511 0.295 2.99c0.037 0.206 0.005 0.381-0.096 0.526-0.11 0.14-0.277 0.246-0.5 0.316v0zM276.223 95.021l1.207 3.807-3.038 0.511-0.292-2.981c-0.014-0.22 0.028-0.398 0.125-0.535 0.089-0.14 0.245-0.246 0.468-0.316v0z" fill="#dfd0b8" data-fill-palette-color="primary"></path><path d="M1.592 142.972c0-6.086 4.934-11.02 11.02-11.02 6.086 0 11.02 4.934 11.019 11.02 0 6.086-4.934 11.02-11.019 11.02-6.086 0-11.02-4.934-11.02-11.02z" fill="#dfd0b8" data-fill-palette-color="primary"></path><path d="M254.197 142.972c0-6.086 4.934-11.02 11.02-11.02 6.086 0 11.02 4.934 11.019 11.02 0 6.086-4.934 11.02-11.019 11.02-6.086 0-11.02-4.934-11.02-11.02z" fill="#dfd0b8" data-fill-palette-color="primary"></path></g><g id="text-1"><path d="M14.559 195.599l-4.647-13.84 22.438-7.534 4.647 13.84-2.473 0.83-3.615-10.767-7.477 2.51 2.776 8.266-2.378 0.799-2.776-8.266-7.638 2.564 3.616 10.768zM17.032 194.769l-1.643-2.306 3.286-0.585c0.199-0.017 0.355 0.018 0.47 0.107 0.108 0.091 0.19 0.219 0.245 0.383v0l0.486 1.446zM31.469 187.582l2.973-1.517 0.082 2.83-2.844 0.955-0.485-1.445c-0.055-0.165-0.067-0.316-0.036-0.454 0.038-0.14 0.141-0.263 0.31-0.369zM31.597 171.98l1.07 3.187-2.56 0.478-0.285-2.519c-0.011-0.18 0.02-0.328 0.095-0.444 0.08-0.119 0.212-0.209 0.396-0.271v0zM10.228 182.701l-1.07-3.187 1.284-0.431c0.19-0.064 0.356-0.074 0.498-0.029 0.142 0.044 0.25 0.145 0.324 0.304v0l1.293 2.18z" fill="#dfd0b8" data-fill-palette-color="secondary"></path><path d="M18.395 203.413l-1.245-2.327 10.338 1.137 4.527-8.83 1.34 2.504c0.114 0.212 0.165 0.386 0.153 0.521-0.02 0.132-0.078 0.273-0.172 0.422v0l-3.598 6.569c0.158-0.031 0.322-0.051 0.492-0.059 0.174-0.002 0.349-0.001 0.526 0.003v0l6.362 0.682c0.186 0.022 0.347 0.061 0.483 0.116 0.139 0.047 0.245 0.138 0.317 0.274v0l1.279 2.389-9.689-1.177-4.959 9.277-1.326-2.477c-0.114-0.212-0.143-0.409-0.088-0.59 0.052-0.172 0.122-0.346 0.21-0.522v0l3.781-6.78c-0.155 0.037-0.308 0.062-0.461 0.075-0.155 0.022-0.312 0.027-0.471 0.013v0l-6.835-0.757c-0.183-0.001-0.361-0.03-0.537-0.089-0.181-0.055-0.324-0.18-0.427-0.374zM33.03 197.949l-1.155-2.159 1.106-0.592 1.155 2.159zM37.281 205.893l-1.155-2.159 1.106-0.591 1.155 2.158zM23.553 210.394l1.15 2.15-1.106 0.592-1.15-2.15zM19.127 202.122l1.155 2.159-1.106 0.592-1.155-2.159zM31.845 193.075l1.585 2.964-2.435 0.893-0.704-2.422c-0.044-0.181-0.039-0.336 0.014-0.463 0.059-0.13 0.174-0.241 0.345-0.333v0zM33.369 195.924l1.591 2.972-1.195 0.639c-0.171 0.092-0.327 0.126-0.468 0.103-0.135-0.026-0.266-0.108-0.393-0.245v0l-1.625-1.93zM36.252 201.311l1.591 2.973-2.44 0.884-0.705-2.422c-0.044-0.181-0.039-0.336 0.014-0.463 0.059-0.13 0.174-0.241 0.346-0.333v0zM37.776 204.16l1.591 2.973-1.194 0.639c-0.171 0.092-0.327 0.126-0.469 0.102-0.135-0.026-0.266-0.108-0.393-0.245v0l-1.624-1.93zM24.719 215.232l-1.59-2.972 2.449-0.889 0.695 2.427c0.068 0.169 0.069 0.32 0.004 0.453-0.065 0.133-0.186 0.248-0.363 0.342v0zM20.142 206.678l-1.591-2.973 2.444-0.898 0.7 2.436c0.064 0.163 0.066 0.314 0.004 0.453-0.065 0.133-0.186 0.248-0.363 0.342v0zM18.612 203.82l-1.585-2.964 1.194-0.639c0.177-0.095 0.339-0.132 0.486-0.112 0.147 0.02 0.271 0.102 0.37 0.246v0l1.639 1.934zM23.209 212.41l-1.59-2.972 1.194-0.639c0.177-0.095 0.339-0.132 0.486-0.113 0.15 0.026 0.275 0.111 0.375 0.255v0l1.638 1.934z" fill="#dfd0b8" data-fill-palette-color="secondary"></path><path d="M31.304 224.829v0c-0.858-1.171-1.327-2.415-1.406-3.734-0.083-1.324 0.214-2.621 0.892-3.89 0.675-1.274 1.705-2.42 3.092-3.437v0c1.349-0.989 2.722-1.627 4.121-1.914 1.399-0.287 2.739-0.179 4.02 0.325 1.282 0.504 2.437 1.457 3.465 2.859v0c0.403 0.55 0.78 1.257 1.131 2.119 0.345 0.867 0.627 1.726 0.845 2.578v0l-1.44 1.056-0.934-1.443c-0.137-0.447-0.306-0.904-0.507-1.37-0.206-0.462-0.492-0.942-0.855-1.438v0c-0.665-0.906-1.422-1.504-2.272-1.793-0.854-0.294-1.773-0.309-2.757-0.044-0.982 0.256-1.988 0.761-3.019 1.517v0c-1.548 1.135-2.539 2.38-2.973 3.735-0.439 1.359-0.197 2.666 0.725 3.923v0c0.51 0.696 1.038 1.184 1.583 1.464 0.546 0.28 1.034 0.482 1.465 0.606 0.432 0.114 0.708 0.252 0.826 0.415v0c0.063 0.086 0.106 0.184 0.127 0.292 0.022 0.109 0.017 0.216-0.013 0.321v0l-0.387 1.304c-1.139-0.06-2.199-0.403-3.18-1.028-0.971-0.623-1.821-1.431-2.549-2.423zM43.317 220.561l1.803-1.732 0.904 1.962-2.071 1.519-0.647-0.882c-0.131-0.178-0.187-0.34-0.169-0.485 0.008-0.147 0.069-0.274 0.18-0.382z" fill="#dfd0b8" data-fill-palette-color="secondary"></path><path d="M44.047 239.381v0c-1.125-1.145-1.847-2.401-2.166-3.766-0.328-1.365-0.243-2.753 0.257-4.162 0.495-1.415 1.394-2.762 2.697-4.042v0c1.112-1.092 2.339-1.852 3.682-2.28 1.342-0.418 2.686-0.463 4.031-0.134 1.34 0.334 2.566 1.066 3.677 2.197v0c0.97 0.988 1.599 2.067 1.887 3.238 0.283 1.166 0.232 2.346-0.152 3.539-0.38 1.198-1.118 2.336-2.216 3.414v0c-0.334 0.328-0.591 0.51-0.771 0.547-0.18 0.036-0.371-0.048-0.573-0.254v0l-7.798-7.938c-0.043 0.042-0.093 0.091-0.15 0.148-0.052 0.052-0.103 0.101-0.15 0.147v0c-1.242 1.38-1.905 2.757-1.988 4.133-0.083 1.376 0.431 2.629 1.541 3.76v0c0.478 0.487 1.049 0.873 1.714 1.158 0.674 0.285 1.284 0.52 1.831 0.705 0.552 0.18 0.905 0.349 1.06 0.506v0c0.173 0.177 0.24 0.373 0.201 0.59v0l-0.19 1.354c-0.72 0.088-1.476 0.006-2.268-0.247-0.792-0.263-1.548-0.626-2.268-1.092-0.72-0.465-1.349-0.972-1.888-1.521zM47.997 228.511v0l6.384 6.499c0.973-0.956 1.505-1.999 1.596-3.129 0.086-1.134-0.335-2.174-1.263-3.119v0c-1.003-1.021-2.077-1.537-3.222-1.547-1.154-0.01-2.319 0.422-3.495 1.296z" fill="#dfd0b8" data-fill-palette-color="secondary"></path><path d="M59.403 252.482v0c-1.284-0.964-2.185-2.097-2.705-3.399-0.529-1.301-0.652-2.685-0.368-4.154 0.278-1.473 0.965-2.939 2.061-4.4v0c0.936-1.246 2.036-2.181 3.299-2.805 1.265-0.615 2.587-0.86 3.966-0.736 1.375 0.129 2.697 0.67 3.964 1.622v0c1.107 0.832 1.891 1.805 2.35 2.919 0.454 1.111 0.581 2.285 0.38 3.522-0.196 1.241-0.756 2.477-1.68 3.708v0c-0.281 0.374-0.508 0.593-0.681 0.655-0.173 0.063-0.374 0.008-0.604-0.165v0l-8.898-6.682c-0.036 0.048-0.078 0.104-0.126 0.169-0.044 0.059-0.086 0.115-0.127 0.168v0c-1.022 1.55-1.471 3.011-1.347 4.384 0.124 1.373 0.819 2.535 2.087 3.487v0c0.546 0.41 1.168 0.706 1.867 0.889 0.709 0.181 1.348 0.322 1.917 0.422 0.573 0.095 0.947 0.209 1.123 0.342v0c0.198 0.149 0.293 0.333 0.287 0.554v0l0.015 1.367c-0.698 0.195-1.458 0.227-2.28 0.095-0.823-0.141-1.625-0.388-2.405-0.74-0.781-0.352-1.479-0.759-2.095-1.222zM61.682 241.143v0l7.285 5.471c0.819-1.091 1.189-2.202 1.11-3.332-0.085-1.135-0.657-2.099-1.716-2.895v0c-1.145-0.86-2.284-1.209-3.417-1.048-1.143 0.163-2.23 0.764-3.262 1.804z" fill="#dfd0b8" data-fill-palette-color="secondary"></path><path d="M75.197 262.336v0c-1.207-0.636-2.067-1.486-2.581-2.551-0.504-1.067-0.672-2.282-0.505-3.646 0.176-1.367 0.663-2.807 1.461-4.323v0c0.761-1.444 1.697-2.61 2.808-3.499 1.12-0.892 2.345-1.43 3.675-1.613 1.329-0.184 2.654 0.072 3.973 0.767v0c0.917 0.483 1.616 1.052 2.096 1.705 0.474 0.65 0.822 1.382 1.044 2.195v0l4.327-8.211 2.601 1.371-11.344 21.525-1.554-0.818c-0.391-0.206-0.526-0.515-0.406-0.929v0l0.704-1.897c-1.044 0.418-2.092 0.648-3.143 0.691-1.057 0.04-2.109-0.216-3.156-0.767zM77.148 260.676v0c0.858 0.452 1.707 0.65 2.546 0.593 0.836-0.051 1.716-0.294 2.641-0.729v0l3.771-7.154c-0.145-0.901-0.435-1.628-0.869-2.182-0.431-0.545-0.999-1.003-1.703-1.374v0c-0.911-0.48-1.805-0.671-2.681-0.573-0.876 0.098-1.699 0.484-2.471 1.159-0.777 0.672-1.484 1.611-2.12 2.818v0c-0.932 1.769-1.343 3.281-1.233 4.534 0.111 1.253 0.817 2.223 2.119 2.908zM89.391 242.051l2.974 1.567-1.522 2.113-1.936-1.621c-0.141-0.12-0.224-0.25-0.247-0.391-0.027-0.135 0.006-0.292 0.1-0.469v0zM84.855 267.165l-2.982-1.572 1.522-2.113 1.944 1.626c0.145 0.099 0.227 0.222 0.248 0.369 0.027 0.15-0.007 0.314-0.1 0.492v0z" fill="#dfd0b8" data-fill-palette-color="secondary"></path><path d="M105.28 279.675l-2.129-0.502 4.489-5.797-3.1-16.905 2.471 0.583c0.254 0.06 0.437 0.172 0.55 0.335 0.108 0.156 0.176 0.316 0.206 0.482v0l1.921 11.276c0.03 0.165 0.054 0.398 0.072 0.698 0.019 0.3 0.033 0.575 0.043 0.824v0c0.087-0.165 0.168-0.318 0.242-0.458 0.081-0.139 0.172-0.279 0.274-0.42 0.103-0.147 0.208-0.298 0.313-0.452v0l6.618-9.234c0.098-0.155 0.243-0.273 0.434-0.352 0.19-0.079 0.37-0.098 0.539-0.058v0l2.285 0.538-14.037 18.98c-0.134 0.188-0.291 0.33-0.471 0.425-0.18 0.095-0.42 0.107-0.72 0.037zM108.815 258.324l-2.412-0.569 0.188-0.8 2.413 0.568zM118.777 260.671l-2.413-0.569 0.189-0.801 2.412 0.569zM103.505 256.228l3.282 0.773-0.941 2.417-2.293-1.076c-0.159-0.085-0.271-0.191-0.337-0.317-0.059-0.131-0.066-0.29-0.022-0.479v0zM107.529 257.175l3.272 0.771-0.311 1.319c-0.044 0.189-0.122 0.329-0.233 0.419-0.109 0.084-0.257 0.128-0.443 0.133v0l-2.523-0.058zM114.238 258.756l3.282 0.773-0.941 2.418-2.292-1.077c-0.165-0.087-0.278-0.193-0.338-0.316-0.059-0.131-0.066-0.29-0.021-0.479v0zM118.252 259.702l3.282 0.773-0.311 1.318c-0.044 0.189-0.122 0.329-0.232 0.42-0.109 0.084-0.257 0.128-0.444 0.132v0l-2.522-0.058z" fill="#dfd0b8" data-fill-palette-color="secondary"></path><path d="M131.413 260.941v0c1.668 0.123 3.063 0.581 4.184 1.375 1.122 0.8 1.955 1.875 2.5 3.222 0.538 1.341 0.745 2.865 0.618 4.573v0c-0.126 1.714-0.554 3.195-1.283 4.443-0.736 1.247-1.717 2.184-2.944 2.812-1.227 0.627-2.674 0.879-4.341 0.756v0c-1.621-0.119-3.006-0.58-4.154-1.382-1.142-0.802-1.988-1.874-2.54-3.216-0.552-1.342-0.764-2.87-0.638-4.585v0c0.126-1.708 0.56-3.185 1.302-4.431 0.743-1.253 1.738-2.193 2.985-2.819 1.253-0.619 2.69-0.868 4.311-0.748zM130.316 275.821v0c1.648 0.121 2.919-0.338 3.814-1.379 0.888-1.035 1.405-2.539 1.55-4.514v0c0.099-1.341 0.003-2.492-0.289-3.452-0.291-0.961-0.782-1.718-1.472-2.272-0.683-0.56-1.575-0.881-2.676-0.962v0c-1.121-0.083-2.067 0.106-2.839 0.566-0.772 0.46-1.369 1.15-1.792 2.071-0.416 0.915-0.672 2.023-0.768 3.324v0c-0.141 1.908 0.151 3.455 0.875 4.642 0.73 1.194 1.929 1.853 3.597 1.976z" fill="#dfd0b8" data-fill-palette-color="secondary"></path><path d="M150.751 277.823v0c-1.205 0.117-2.25-0.051-3.133-0.503-0.884-0.459-1.585-1.137-2.102-2.035-0.518-0.904-0.837-1.979-0.957-3.224v0l-1.028-10.616 2.916-0.282 1.028 10.616c0.122 1.265 0.51 2.215 1.163 2.851 0.646 0.636 1.562 0.897 2.747 0.783v0c0.852-0.082 1.635-0.363 2.348-0.843 0.72-0.48 1.361-1.113 1.923-1.899v0l-1.189-12.285 2.926-0.283 1.613 16.659-1.738 0.168c-0.439 0.043-0.723-0.142-0.85-0.553v0l-0.401-1.745c-0.65 0.856-1.4 1.574-2.251 2.153-0.851 0.58-1.856 0.926-3.015 1.038zM161.373 276.533l-3.356 0.324 0.121-2.602 2.508 0.291c0.182 0.003 0.322 0.06 0.42 0.171 0.098 0.111 0.157 0.267 0.176 0.467v0zM141.164 261.674l3.346-0.324-0.112 2.592-2.517-0.281c-0.178-0.03-0.315-0.094-0.412-0.192-0.098-0.105-0.156-0.254-0.174-0.447v0zM152.1 260.615l3.356-0.324-0.112 2.591-2.517-0.28c-0.178-0.03-0.315-0.094-0.412-0.192-0.104-0.104-0.166-0.253-0.184-0.446v0z" fill="#dfd0b8" data-fill-palette-color="secondary"></path><path d="M170.934 274.403l-2.855 0.7-3.987-16.255 1.638-0.401c0.318-0.078 0.557-0.075 0.715 0.011 0.159 0.085 0.284 0.275 0.377 0.568v0l0.816 2.486c0.275-1.266 0.74-2.32 1.394-3.162 0.654-0.842 1.537-1.4 2.648-1.672v0c0.448-0.11 0.868-0.154 1.259-0.133 0.389 0.015 0.754 0.07 1.095 0.165v0l0.177 2.24c0.012 0.135-0.022 0.246-0.104 0.335-0.083 0.082-0.186 0.139-0.31 0.169v0c-0.149 0.037-0.45 0.062-0.9 0.077-0.453 0.008-0.838 0.051-1.157 0.128v0c-0.988 0.242-1.745 0.734-2.272 1.477-0.535 0.737-0.893 1.707-1.074 2.908v0zM173.244 273.837l-3.275 0.803-0.263-2.591 2.533-0.074c0.174-0.022 0.32 0.014 0.44 0.109 0.113 0.096 0.194 0.242 0.242 0.437v0zM169.043 274.867l-3.274 0.803-0.323-1.316c-0.048-0.195-0.044-0.361 0.012-0.499 0.056-0.138 0.169-0.238 0.34-0.3v0l2.28-1.107zM161.783 259.415l3.274-0.803 0.261 2.581-2.531 0.083c-0.187-0.002-0.335-0.045-0.445-0.128-0.112-0.09-0.19-0.229-0.237-0.418v0z" fill="#dfd0b8" data-fill-palette-color="secondary"></path><path d="M197.252 265.09l-2.671 1.227-10.156-22.111 2.672-1.227zM195.483 265.903l-3.063 1.407-0.566-1.231c-0.084-0.182-0.111-0.346-0.082-0.492 0.029-0.146 0.121-0.265 0.276-0.359v0l2.031-1.518zM199.413 264.098l-3.064 1.407-0.748-2.494 2.475-0.551c0.166-0.054 0.317-0.046 0.452 0.024 0.129 0.073 0.236 0.201 0.32 0.383v0zM182.264 245.198l3.064-1.407 0.748 2.494-2.474 0.552c-0.181 0.039-0.335 0.025-0.462-0.043-0.124-0.061-0.227-0.183-0.311-0.365v0z" fill="#dfd0b8" data-fill-palette-color="secondary"></path><path d="M207.723 259.473l-2.553 1.457-8.297-14.535 2.553-1.457zM206.033 260.438l-2.928 1.671-0.672-1.176c-0.099-0.174-0.141-0.335-0.125-0.483 0.016-0.148 0.097-0.275 0.244-0.382v0l1.889-1.691zM209.789 258.294l-2.928 1.671-0.965-2.418 2.416-0.767c0.161-0.069 0.312-0.074 0.453-0.016 0.135 0.061 0.253 0.179 0.352 0.353v0zM194.808 247.574l2.928-1.671 0.959 2.41-2.411 0.775c-0.18 0.049-0.334 0.048-0.463-0.001-0.132-0.056-0.246-0.168-0.342-0.336v0zM196.538 242.935v0c-0.482 0.275-1.008 0.333-1.577 0.173-0.572-0.151-0.993-0.465-1.265-0.942v0c-0.285-0.5-0.348-1.034-0.187-1.603 0.151-0.572 0.468-0.995 0.95-1.27v0c0.494-0.282 1.028-0.344 1.603-0.187 0.566 0.155 0.991 0.482 1.277 0.981v0c0.272 0.476 0.331 0.997 0.176 1.563-0.157 0.575-0.482 1.003-0.977 1.285z" fill="#dfd0b8" data-fill-palette-color="secondary"></path><path d="M217.746 252.276l-2.279 1.857-10.572-12.975 1.354-1.103c0.342-0.279 0.678-0.285 1.007-0.018v0l1.263 1.184c-0.004-0.989 0.135-1.909 0.417-2.76 0.287-0.855 0.822-1.602 1.605-2.24v0c0.887-0.723 1.796-1.062 2.729-1.019 0.931 0.052 1.856 0.399 2.775 1.039v0c-0.39-1.209-0.386-2.348 0.013-3.415 0.398-1.058 1.04-1.948 1.927-2.67v0c1.385-1.128 2.81-1.56 4.276-1.297 1.461 0.268 2.81 1.162 4.049 2.681v0l6.737 8.269-2.271 1.851-6.738-8.269c-0.82-1.006-1.668-1.592-2.545-1.757-0.872-0.17-1.736 0.094-2.591 0.791v0c-0.783 0.638-1.218 1.454-1.305 2.448-0.087 0.994 0.258 1.969 1.035 2.923v0l6.737 8.269-2.271 1.85-6.737-8.268c-0.845-1.037-1.687-1.641-2.525-1.813-0.838-0.171-1.657 0.069-2.456 0.719v0c-0.565 0.461-0.962 1.038-1.189 1.733-0.224 0.7-0.333 1.471-0.329 2.313v0zM216.237 253.505l-2.613 2.13-0.856-1.05c-0.127-0.156-0.194-0.307-0.203-0.456-0.009-0.148 0.051-0.287 0.178-0.417v0l1.585-1.978zM219.59 250.774l-2.614 2.129-1.349-2.227 2.258-1.153c0.148-0.094 0.296-0.124 0.444-0.09 0.143 0.038 0.279 0.135 0.405 0.291v0zM227.213 244.563l-2.606 2.123-1.349-2.228 2.257-1.153c0.148-0.094 0.293-0.122 0.437-0.084 0.143 0.038 0.279 0.135 0.405 0.291v0zM203.052 242.66l2.613-2.129 1.343 2.219-2.251 1.161c-0.17 0.078-0.322 0.103-0.457 0.075-0.139-0.033-0.27-0.125-0.393-0.276v0zM234.89 238.307l-2.605 2.123-1.349-2.227 2.257-1.153c0.148-0.094 0.293-0.122 0.437-0.084 0.143 0.038 0.279 0.135 0.405 0.291v0z" fill="#dfd0b8" data-fill-palette-color="secondary"></path><path d="M241.536 230.902l-1.943 2.207-12.563-11.057 1.942-2.207zM240.25 232.363l-2.228 2.531-1.017-0.895c-0.151-0.133-0.242-0.271-0.275-0.416-0.033-0.145 0.003-0.292 0.107-0.44v0l1.238-2.212zM243.107 229.117l-2.228 2.531-1.697-1.975 2.037-1.509c0.13-0.117 0.271-0.171 0.423-0.162 0.148 0.014 0.297 0.088 0.448 0.22v0zM225.459 223.837l2.227-2.531 1.69 1.968-2.029 1.516c-0.154 0.105-0.301 0.154-0.439 0.149-0.143-0.01-0.287-0.079-0.432-0.207v0zM225.591 218.887v0c-0.367 0.417-0.845 0.642-1.436 0.675-0.59 0.042-1.091-0.118-1.502-0.48v0c-0.432-0.38-0.664-0.865-0.697-1.456-0.042-0.59 0.12-1.093 0.487-1.51v0c0.376-0.427 0.861-0.659 1.455-0.697 0.585-0.037 1.094 0.134 1.526 0.514v0c0.412 0.362 0.636 0.836 0.674 1.422 0.038 0.595-0.131 1.106-0.507 1.532z" fill="#dfd0b8" data-fill-palette-color="secondary"></path><path d="M249.484 220.906v0c-0.768 1.071-1.66 1.682-2.675 1.834-1.015 0.152-2.085-0.175-3.21-0.982v0l-8.315-5.967-1.176 1.639c-0.101 0.141-0.233 0.228-0.396 0.259-0.157 0.035-0.325-0.011-0.504-0.14v0l-0.938-0.673 1.295-2.442-3.778-3.563c-0.277-0.256-0.3-0.545-0.07-0.866v0l0.866-1.207 4.671 3.353 2.79-3.889 1.745 1.252-2.791 3.888 8.152 5.851c0.571 0.409 1.094 0.575 1.57 0.496 0.476-0.078 0.874-0.34 1.194-0.785v0c0.14-0.196 0.24-0.449 0.299-0.761 0.064-0.308 0.113-0.599 0.144-0.873 0.032-0.274 0.081-0.457 0.147-0.549v0c0.09-0.125 0.236-0.18 0.441-0.165v0l1.66 0.129c0.079 0.682 0.021 1.394-0.174 2.136-0.194 0.741-0.51 1.416-0.947 2.025z" fill="#dfd0b8" data-fill-palette-color="secondary"></path><path d="M256.993 208.786v0c-0.388 0.695-0.897 1.426-1.526 2.193-0.632 0.773-1.236 1.401-1.811 1.884v0l-2.129-1.189 0.999-1.109c0.31-0.156 0.708-0.458 1.196-0.906 0.49-0.439 0.94-1.023 1.348-1.753v0c0.614-1.098 0.838-2.034 0.673-2.808-0.159-0.771-0.566-1.339-1.22-1.704v0c-0.572-0.32-1.111-0.391-1.616-0.214-0.502 0.172-1.011 0.492-1.527 0.963-0.513 0.465-1.062 0.974-1.647 1.527v0c-0.616 0.568-1.24 1.054-1.873 1.459-0.629 0.399-1.284 0.639-1.964 0.718-0.683 0.07-1.401-0.105-2.155-0.526v0c-0.864-0.483-1.496-1.135-1.895-1.956-0.397-0.812-0.562-1.709-0.496-2.691 0.072-0.979 0.382-1.959 0.931-2.94v0c0.313-0.561 0.726-1.142 1.239-1.744 0.516-0.608 1.134-1.24 1.853-1.895v0l1.725 0.964-1.053 1.411c-0.342 0.338-0.667 0.692-0.975 1.065-0.308 0.372-0.568 0.748-0.779 1.128v0c-0.313 0.561-0.503 1.106-0.57 1.635-0.072 0.527-0.024 1.002 0.145 1.426 0.167 0.415 0.454 0.737 0.863 0.966v0c0.537 0.3 1.078 0.334 1.622 0.101 0.547-0.238 1.083-0.601 1.609-1.089 0.526-0.488 1.026-0.951 1.501-1.391v0c0.548-0.529 1.133-0.991 1.753-1.388 0.626-0.393 1.288-0.632 1.987-0.717 0.708-0.087 1.465 0.094 2.271 0.545v0c0.864 0.483 1.518 1.144 1.961 1.982 0.434 0.841 0.625 1.782 0.571 2.824-0.051 1.037-0.388 2.113-1.011 3.229zM247.79 199.481l-2.324-0.921 1.404-1.628 2.242 1.253-0.528 0.946c-0.108 0.193-0.23 0.316-0.368 0.369-0.14 0.044-0.282 0.038-0.426-0.019zM251.19 209.439l2.316 0.915-1.401 1.643-2.251-1.258 0.534-0.955c0.117-0.21 0.245-0.335 0.381-0.373 0.131-0.042 0.271-0.032 0.421 0.028z" fill="#dfd0b8" data-fill-palette-color="secondary"></path><path d="M253.369 181.233l-8.936-3.049 0.894-2.621 8.936 3.049c0.481 0.164 0.949 0.327 1.402 0.489 0.452 0.168 0.897 0.345 1.336 0.53 0.439 0.185 0.89 0.385 1.354 0.599 0.458 0.213 0.935 0.439 1.432 0.68v0l-0.638 1.871c-0.541-0.114-1.056-0.23-1.546-0.347-0.494-0.126-0.971-0.25-1.432-0.372-0.46-0.122-0.923-0.248-1.387-0.378-0.462-0.137-0.934-0.287-1.415-0.451zM264.883 185.925v0c-0.544-0.186-0.941-0.537-1.189-1.053-0.257-0.512-0.295-1.03-0.116-1.555v0c0.184-0.538 0.534-0.934 1.052-1.189 0.512-0.257 1.04-0.292 1.584-0.106v0c0.544 0.186 0.941 0.537 1.189 1.052 0.254 0.518 0.29 1.046 0.106 1.584v0c-0.179 0.525-0.527 0.912-1.042 1.16-0.512 0.257-1.04 0.292-1.584 0.107z" fill="#dfd0b8" data-fill-palette-color="secondary"></path></g></svg></g></svg></g></svg></g></svg></g><defs></defs></svg><rect width="279.72" height="279.72" fill="none" stroke="none" visibility="hidden"></rect></g></svg></g></svg>